# xmcd CD database file
#
# Track frame offsets:
#	150
#	28320
#	58200
#	79168
#	99581
#	124483
#	158061
#	183522
#	205277
#	229332
#
# Disc length: 3389 seconds
#
# Revision: 0
# Processed by: cddbd v1.5.2PL0 Copyright (c) Steve Scherf et al.
# Submitted via: CDex 1.70beta2
#
DISCID=900d3b0a
DTITLE=Kristian Jørgensen Quartet - Love Letters
DYEAR=2008
DGENRE=Jazz
TTITLE0=That Old Soccer Boy
TTITLE1=Laura
TTITLE2=Love Letters
TTITLE3=You Can't Get A Man With A Gun
TTITLE4=Escualo
TTITLE5=Intervals
TTITLE6=But Not For Me
TTITLE7=Recreation Ballad
TTITLE8=Belle De Boskoop
TTITLE9=The H Chord Blues
EXTD=YEAR: 2008
EXTT0=
EXTT1=
EXTT2=
EXTT3=
EXTT4=
EXTT5=
EXTT6=
EXTT7=
EXTT8=
EXTT9=
PLAYORDER=
